<svg xmlns="http://www.w3.org/2000/svg" viewBox="0 0 347.84 79.57"><defs><style>.cls-1{fill:#a0a9ca;}.cls-2{fill:#405189;}</style></defs><g id="Layer_2" data-name="Layer 2"><g id="Layer_1-2" data-name="Layer 1"><path class="cls-1" d="M79.33,37.3v5.06a39.48,39.48,0,0,1-5.72,18.17L62.32,49.24a24.38,24.38,0,0,0,1.73-6.89,23.36,23.36,0,0,0,.13-2.52,24.56,24.56,0,0,0-1.86-9.41l11.3-11.3a39.78,39.78,0,0,1,5.26,14.15c0,.29.09.58.13.88s.09.61.12.92C79.22,35.81,79.29,36.55,79.33,37.3Z"/><path class="cls-2" d="M49.23,62.55l11.3,11.3a39.44,39.44,0,0,1-18.17,5.72H37.3c-.75,0-1.49-.11-2.23-.2A39.8,39.8,0,0,1,0,40.39v-.56c0-1.25.06-2.5.17-3.73A39.82,39.82,0,0,1,39.83,0a40.8,40.8,0,0,1,5.09.32A39.66,39.66,0,0,1,60.54,5.8L49.24,17.1a24.61,24.61,0,0,0-18.82,0,24.67,24.67,0,0,0-10.31,8,23.9,23.9,0,0,0-1.93,3,23.4,23.4,0,0,0-1.08,2.26,24.57,24.57,0,0,0-1.83,8.06q0,.66,0,1.35a25.58,25.58,0,0,0,.17,2.92,24.59,24.59,0,0,0,33.82,19.8Z"/><path class="cls-1" d="M40.09,20.11A19.06,19.06,0,0,0,21,39.18c0,.27,0,.54,0,.8a18.69,18.69,0,0,0,.65,4.2A19.07,19.07,0,0,0,50.57,55.1l.18-.12a19.17,19.17,0,0,0,5.08-5,18.92,18.92,0,0,0,2.88-6.66A19.09,19.09,0,0,0,40.09,20.11ZM32.84,30.63,35.38,27l3.21-.58.58,3.2-.47.69L34,37.09l7.51,5.2.59,3.24-3.17.58L37.23,45l-9.66-6.7ZM51.47,42.41,46.3,49.86l-.88,1.28-.2.29-1.59.29L42.24,52,42.07,51l-.39-2.11.06-.08,4.84-7L39.51,37,39,34l3-.55,5.37,3.72,5.26,3.64Z"/><path class="cls-2" d="M100.52,60.73a11.4,11.4,0,0,1-5.2-4.3,12.2,12.2,0,0,1-1.81-6.77V24.56a12.26,12.26,0,0,1,1.81-6.8,11.4,11.4,0,0,1,5.2-4.3A20.18,20.18,0,0,1,108.69,12a20.58,20.58,0,0,1,8.2,1.47,11.13,11.13,0,0,1,5.19,4.32,12.51,12.51,0,0,1,1.79,6.8v3h-9.8v-3a6,6,0,0,0-.62-2.81A4,4,0,0,0,111.62,20a6.44,6.44,0,0,0-2.93-.61,6.18,6.18,0,0,0-2.87.61A4.37,4.37,0,0,0,104,21.74a5.65,5.65,0,0,0-.66,2.82v25.1a5.56,5.56,0,0,0,.66,2.81,4.45,4.45,0,0,0,1.86,1.76,6.18,6.18,0,0,0,2.87.61,6.25,6.25,0,0,0,3-.63,4.18,4.18,0,0,0,1.81-1.77,5.94,5.94,0,0,0,.62-2.82v-3h9.8v3a13,13,0,0,1-1.81,6.81,11,11,0,0,1-5.19,4.32,20.65,20.65,0,0,1-8.18,1.47A20.18,20.18,0,0,1,100.52,60.73Z"/><path class="cls-2" d="M141.43,51.72a2.67,2.67,0,0,0,.81,2.09,3.41,3.41,0,0,0,2.32.73h1.94v7.18h-3.79c-3.48,0-6.18-.82-8.1-2.44a8.5,8.5,0,0,1-2.89-6.88V12.47h9.71Z"/><path class="cls-2" d="M157.91,61.06a10,10,0,0,1-4.64-3.39,8.87,8.87,0,0,1-1.61-5.34V35.67a8.63,8.63,0,0,1,1.61-5.26,9.84,9.84,0,0,1,4.64-3.32,23.66,23.66,0,0,1,14.51,0A9.5,9.5,0,0,1,177,30.41a8.74,8.74,0,0,1,1.57,5.26V52.44A8.84,8.84,0,0,1,177,57.72a9.61,9.61,0,0,1-4.59,3.35,23.36,23.36,0,0,1-14.51,0ZM168,54.45a3.16,3.16,0,0,0,1-2.52V36.15a3.06,3.06,0,0,0-1-2.43,5.07,5.07,0,0,0-5.65,0,3,3,0,0,0-1,2.43V51.93a3.11,3.11,0,0,0,1,2.5,4.13,4.13,0,0,0,2.82.88A4.2,4.2,0,0,0,168,54.45Z"/><path class="cls-2" d="M190.32,61.14A7.76,7.76,0,0,1,187,57.7a12,12,0,0,1-1.13-5.43V36.15a12.12,12.12,0,0,1,1.15-5.49,8,8,0,0,1,3.29-3.51,10.34,10.34,0,0,1,5.14-1.2,10.23,10.23,0,0,1,5.65,1.66,12,12,0,0,1,4.1,4.64L204.3,37a4.85,4.85,0,0,0-.5-2.27,3.43,3.43,0,0,0-1.48-1.44,5.22,5.22,0,0,0-2.39-.49,4.53,4.53,0,0,0-3.28,1.12A4.09,4.09,0,0,0,195.48,37V51.52a3.7,3.7,0,0,0,1.17,2.93,4.78,4.78,0,0,0,3.28,1,5.36,5.36,0,0,0,2.39-.47,3.31,3.31,0,0,0,1.48-1.41,4.65,4.65,0,0,0,.5-2.21l.62,4.81a9.28,9.28,0,0,1-3.64,4.52,11.57,11.57,0,0,1-11,.42Zm14-48.67H214V61.72H204.3Z"/><path class="cls-2" d="M228.83,60.9A10,10,0,0,1,222.26,51V37.84a12,12,0,0,1,1.66-6.44,10.46,10.46,0,0,1,4.76-4.06A18.36,18.36,0,0,1,236.16,26a19.61,19.61,0,0,1,7.57,1.32,10.4,10.4,0,0,1,4.81,3.85,11,11,0,0,1,1.65,6.14v9.62H229.63V41.12h11.25v-4a4.5,4.5,0,0,0-1.23-3.37,4.82,4.82,0,0,0-3.49-1.2,4.44,4.44,0,0,0-3.4,1.27,5.1,5.1,0,0,0-1.19,3.61V51.22a3.91,3.91,0,0,0,1.28,3.13,5.46,5.46,0,0,0,3.66,1.1,5.72,5.72,0,0,0,3.36-.86,2.85,2.85,0,0,0,1.19-2.43v-.71l9.26,0v.61a8.69,8.69,0,0,1-3.62,7.48q-3.62,2.64-10.19,2.64A20,20,0,0,1,228.83,60.9Z"/><path class="cls-2" d="M276.22,26.56h9.54L273.53,61.72H266L253.72,26.56h9.53l6.53,24.56Z"/><path class="cls-2" d="M296.61,60.9A10,10,0,0,1,290,51V37.84a12.05,12.05,0,0,1,1.66-6.44,10.46,10.46,0,0,1,4.76-4.06A18.39,18.39,0,0,1,303.93,26a19.57,19.57,0,0,1,7.57,1.32,10.35,10.35,0,0,1,4.81,3.85A11,11,0,0,1,318,37.26v9.62H297.4V41.12h11.26v-4a4.51,4.51,0,0,0-1.24-3.37,4.8,4.8,0,0,0-3.49-1.2,4.4,4.4,0,0,0-3.39,1.27,5.06,5.06,0,0,0-1.19,3.61V51.22a3.91,3.91,0,0,0,1.27,3.13,5.51,5.51,0,0,0,3.67,1.1,5.66,5.66,0,0,0,3.35-.86,2.85,2.85,0,0,0,1.19-2.43v-.71l9.27,0v.61a8.71,8.71,0,0,1-3.62,7.48q-3.62,2.64-10.19,2.64A20,20,0,0,1,296.61,60.9Z"/><path class="cls-2" d="M326.35,26.56h9.71V61.72h-9.71Zm20.52,7.05h-1.24a11.57,11.57,0,0,0-7,1.86,6.08,6.08,0,0,0-2.56,5.08l-.93-7.86a14.54,14.54,0,0,1,5.4-5A15.26,15.26,0,0,1,347.84,26v7.62C347.54,33.6,347.22,33.61,346.87,33.61Z"/></g></g></svg>